<svg  xmlns="http://www.w3.org/2000/svg">
    <symbol viewBox="0 0 24 24" id="star">
        <path d="M22 9.67002C21.9368 9.48711 21.822 9.32645 21.6693 9.20753C21.5167 9.0886 21.3328 9.01652 21.14 9.00002L15.45 8.17002L12.9 3.00002C12.8181 2.83095 12.6902 2.68837 12.5311 2.5886C12.3719 2.48883 12.1878 2.43591 12 2.43591C11.8121 2.43591 11.6281 2.48883 11.4689 2.5886C11.3097 2.68837 11.1819 2.83095 11.1 3.00002L8.54998 8.16002L2.85998 9.00002C2.6749 9.02633 2.5009 9.10399 2.35773 9.22418C2.21455 9.34438 2.10794 9.5023 2.04998 9.68002C1.99692 9.8537 1.99216 10.0385 2.03621 10.2147C2.08025 10.3909 2.17144 10.5517 2.29998 10.68L6.42998 14.68L5.42998 20.36C5.39428 20.5475 5.41297 20.7413 5.48385 20.9185C5.55473 21.0957 5.67483 21.2489 5.82998 21.36C5.98119 21.4681 6.15955 21.5319 6.34503 21.5443C6.5305 21.5567 6.71575 21.5171 6.87998 21.43L12 18.76L17.1 21.44C17.2403 21.5192 17.3988 21.5606 17.56 21.56C17.7718 21.5608 17.9784 21.4942 18.15 21.37C18.3051 21.2589 18.4252 21.1057 18.4961 20.9285C18.567 20.7513 18.5857 20.5575 18.55 20.37L17.55 14.69L21.68 10.69C21.8244 10.5677 21.9311 10.4069 21.9877 10.2264C22.0444 10.0458 22.0486 9.8529 22 9.67002ZM15.85 13.67C15.7327 13.7835 15.645 13.9239 15.5944 14.079C15.5439 14.2341 15.532 14.3993 15.56 14.56L16.28 18.75L12.52 16.75C12.3753 16.673 12.2139 16.6327 12.05 16.6327C11.8861 16.6327 11.7247 16.673 11.58 16.75L7.81998 18.75L8.53998 14.56C8.56791 14.3993 8.55609 14.2341 8.50554 14.079C8.45499 13.9239 8.36725 13.7835 8.24998 13.67L5.24998 10.67L9.45998 10.06C9.62198 10.0375 9.77598 9.97556 9.90848 9.87967C10.041 9.78379 10.1479 9.65686 10.22 9.51002L12 5.70002L13.88 9.52002C13.952 9.66686 14.059 9.79379 14.1915 9.88968C14.324 9.98556 14.478 10.0475 14.64 10.07L18.85 10.68L15.85 13.67Z"/>
    </symbol>
    <symbol viewBox="0 0 24 24" id="trash">
        <path d="M10 18C10.2652 18 10.5196 17.8946 10.7071 17.7071C10.8946 17.5196 11 17.2652 11 17V11C11 10.7348 10.8946 10.4804 10.7071 10.2929C10.5196 10.1054 10.2652 10 10 10C9.73478 10 9.48043 10.1054 9.29289 10.2929C9.10536 10.4804 9 10.7348 9 11V17C9 17.2652 9.10536 17.5196 9.29289 17.7071C9.48043 17.8946 9.73478 18 10 18ZM20 6H16V5C16 4.20435 15.6839 3.44129 15.1213 2.87868C14.5587 2.31607 13.7956 2 13 2H11C10.2044 2 9.44129 2.31607 8.87868 2.87868C8.31607 3.44129 8 4.20435 8 5V6H4C3.73478 6 3.48043 6.10536 3.29289 6.29289C3.10536 6.48043 3 6.73478 3 7C3 7.26522 3.10536 7.51957 3.29289 7.70711C3.48043 7.89464 3.73478 8 4 8H5V19C5 19.7956 5.31607 20.5587 5.87868 21.1213C6.44129 21.6839 7.20435 22 8 22H16C16.7956 22 17.5587 21.6839 18.1213 21.1213C18.6839 20.5587 19 19.7956 19 19V8H20C20.2652 8 20.5196 7.89464 20.7071 7.70711C20.8946 7.51957 21 7.26522 21 7C21 6.73478 20.8946 6.48043 20.7071 6.29289C20.5196 6.10536 20.2652 6 20 6ZM10 5C10 4.73478 10.1054 4.48043 10.2929 4.29289C10.4804 4.10536 10.7348 4 11 4H13C13.2652 4 13.5196 4.10536 13.7071 4.29289C13.8946 4.48043 14 4.73478 14 5V6H10V5ZM17 19C17 19.2652 16.8946 19.5196 16.7071 19.7071C16.5196 19.8946 16.2652 20 16 20H8C7.73478 20 7.48043 19.8946 7.29289 19.7071C7.10536 19.5196 7 19.2652 7 19V8H17V19ZM14 18C14.2652 18 14.5196 17.8946 14.7071 17.7071C14.8946 17.5196 15 17.2652 15 17V11C15 10.7348 14.8946 10.4804 14.7071 10.2929C14.5196 10.1054 14.2652 10 14 10C13.7348 10 13.4804 10.1054 13.2929 10.2929C13.1054 10.4804 13 10.7348 13 11V17C13 17.2652 13.1054 17.5196 13.2929 17.7071C13.4804 17.8946 13.7348 18 14 18Z"/>
    </symbol>
    <symbol viewBox="0 0 24 24" id="arrow-circle">
        <path d="M15.71 12.71C15.801 12.6149 15.8724 12.5028 15.92 12.38C16.02 12.1365 16.02 11.8635 15.92 11.62C15.8724 11.4973 15.801 11.3851 15.71 11.29L12.71 8.29C12.5217 8.1017 12.2663 7.99591 12 7.99591C11.7337 7.99591 11.4783 8.1017 11.29 8.29C11.1017 8.47831 10.9959 8.7337 10.9959 9C10.9959 9.26631 11.1017 9.5217 11.29 9.71L12.59 11H9C8.73479 11 8.48043 11.1054 8.2929 11.2929C8.10536 11.4804 8 11.7348 8 12C8 12.2652 8.10536 12.5196 8.2929 12.7071C8.48043 12.8946 8.73479 13 9 13H12.59L11.29 14.29C11.1963 14.383 11.1219 14.4936 11.0711 14.6154C11.0203 14.7373 10.9942 14.868 10.9942 15C10.9942 15.132 11.0203 15.2627 11.0711 15.3846C11.1219 15.5064 11.1963 15.617 11.29 15.71C11.383 15.8037 11.4936 15.8781 11.6154 15.9289C11.7373 15.9797 11.868 16.0058 12 16.0058C12.132 16.0058 12.2627 15.9797 12.3846 15.9289C12.5064 15.8781 12.617 15.8037 12.71 15.71L15.71 12.71ZM22 12C22 10.0222 21.4135 8.08879 20.3147 6.4443C19.2159 4.79981 17.6541 3.51809 15.8268 2.76121C13.9996 2.00433 11.9889 1.8063 10.0491 2.19215C8.10929 2.578 6.32746 3.53041 4.92894 4.92894C3.53041 6.32746 2.578 8.10929 2.19215 10.0491C1.8063 11.9889 2.00433 13.9996 2.76121 15.8268C3.51809 17.6541 4.79981 19.2159 6.4443 20.3147C8.08879 21.4135 10.0222 22 12 22C14.6522 22 17.1957 20.9464 19.0711 19.0711C20.9464 17.1957 22 14.6522 22 12ZM4 12C4 10.4178 4.4692 8.87104 5.34825 7.55544C6.2273 6.23985 7.47673 5.21447 8.93854 4.60897C10.4003 4.00347 12.0089 3.84504 13.5607 4.15372C15.1126 4.4624 16.538 5.22433 17.6569 6.34315C18.7757 7.46197 19.5376 8.88743 19.8463 10.4393C20.155 11.9911 19.9965 13.5997 19.391 15.0615C18.7855 16.5233 17.7602 17.7727 16.4446 18.6518C15.129 19.5308 13.5823 20 12 20C9.87827 20 7.84344 19.1572 6.34315 17.6569C4.84286 16.1566 4 14.1217 4 12Z">
    </symbol>
</svg>

